<svg xmlns="http://www.w3.org/2000/svg" fill="none" viewBox="0 0 1433 535" height="535" width="1433">
<path fill="#FFCC2F" d="M206.359 378.443C199.223 429.812 169.604 449.501 117.504 449.501C83.939 449.501 56.0498 445.285 19.806 437.682C15.105 436.707 10.5258 439.876 9.89249 444.627L0.076452 515.223C-0.508126 519.536 2.31729 523.508 6.57984 524.459C36.6856 531.038 68.472 534.767 104.911 534.767C225.017 534.767 285.351 477.915 297.432 378.443L315.529 234.693L333.919 137.218C336.136 125.936 330.168 122.451 320.596 125.204L269.055 141.336C255.026 145.991 247.938 143.31 238.633 138.12C219.147 127.324 193.718 119.941 166.876 119.941C88.4451 119.941 26.4799 164.218 12.2064 265.348C-0.410742 353.879 37.4407 403.639 107.079 403.639C144.833 403.639 176.765 386.435 203.29 365.308C208.113 361.433 207.358 370.913 206.384 378.491L206.359 378.443ZM221.729 271.197C217.954 295.979 208.405 312.525 194.814 318.91C181.71 325.051 166.681 329.266 150.386 329.266C104.326 329.266 87.8605 303.582 93.341 264.203C98.2612 229.77 123.495 206.254 179.444 205.718C191.428 205.328 204.289 206.083 216.711 208.008C229.231 209.982 229.791 212.809 226.235 239.396L221.68 271.148L221.729 271.197Z"></path>
<path fill="#FFCC2F" d="M517.647 228.872C517.306 228.872 516.965 228.896 516.624 228.921C474.12 230.626 441.725 241.568 437.024 283.701L422.117 417.801C421.045 427.476 412.861 434.762 403.094 434.762H342.98C331.337 434.762 322.398 424.527 324.03 413.001L353.843 203.553L358.836 139.537C359.421 132.177 365.583 126.475 372.988 126.475H430.082C435.611 126.475 440.166 130.764 440.507 136.247L443.21 183.254C443.576 189.37 446.791 188.469 448.228 186.324C472.878 149.187 500.426 120.992 529.899 120.992H529.996C536.986 120.992 542.345 127.158 541.395 134.054L529.728 217.979C528.9 224.071 523.785 228.628 517.622 228.847L517.647 228.872Z"></path>
<path fill="#FFCC2F" d="M953.16 290.767L939.325 417.361C938.253 427.255 931.263 434.711 917.623 434.711H863.963C846.012 434.711 842.943 424.233 844.599 412.488L874.339 203.478L879.333 139.609C879.917 132.152 886.153 126.4 893.631 126.4H945.731C952.746 126.4 958.494 131.884 958.835 138.853L961.052 184.715C961.222 193.098 964.364 191.245 965.923 189.393C1001.56 147.138 1041.11 120.917 1082.77 120.917C1132.14 120.917 1167.24 153.718 1154.62 255.944L1134.28 417.605C1133.06 427.352 1126.02 434.638 1110.83 434.638H1062.09C1041.09 434.638 1037.27 423.989 1039.09 412.195L1061.92 265.765C1068.52 226.409 1054.24 215.492 1031.2 215.492C1018.17 215.492 1005.38 219.684 992.838 227.384C970.454 241.104 956.01 264.717 953.16 290.718V290.767Z"></path>
<path fill="#FFCC2F" d="M642.258 291.374C637.703 333.093 644.499 350.443 682.277 350.443C724.148 350.443 734.938 327.244 739.931 289.107L758.516 139.63C759.442 131.759 766.14 125.813 774.08 125.813H841.356C847.81 125.813 852.706 131.564 851.659 137.924L834.365 278.701C820.262 403.883 764.264 441.557 679.135 441.557C563.072 441.557 532.552 384.851 550.309 281.894L567.749 139.582C568.699 131.759 575.373 125.862 583.313 125.862H653.974C660.429 125.862 665.324 131.662 664.253 137.973L642.282 291.397"></path>
<path fill="#FFCC2F" d="M1310.36 247.802C1384.94 255.454 1432.12 279.506 1422.26 348.932C1412.93 412.899 1348.75 440.216 1282.37 440.216C1241.33 440.216 1209.03 436.244 1178.37 428.665C1169.18 426.399 1163.05 420.77 1164.6 408.22L1173.08 349.785C1174.1 341.573 1179.27 338.77 1184.12 340.232C1217.56 350.394 1245.25 358.216 1295.55 358.216C1326.24 358.216 1339.44 350.564 1341.07 338.526C1342.71 325.391 1330.09 318.837 1309.8 315.035C1225.33 303.558 1182.56 286.597 1192.42 214.466C1201.75 148.866 1268.12 119.916 1330.09 119.916C1366.43 119.916 1395.22 124.4 1419.63 132.173C1428.15 134.878 1433.92 138.217 1432.32 152.131L1423.77 215.611C1423.04 221.143 1417.12 224.335 1412.05 221.947C1388.67 210.981 1358.2 201.916 1312.02 201.916C1285.13 201.916 1273.07 209.007 1270.88 222.702C1268.66 237.445 1283.49 243.489 1310.38 247.851L1310.36 247.802Z"></path>
<path fill="#FFCC2F" d="M646.085 97.4742C674.656 97.4742 697.82 75.64 697.82 48.7371C697.82 21.8342 674.656 0 646.085 0C617.514 0 594.35 21.8342 594.35 48.7371C594.35 75.64 617.514 97.4742 646.085 97.4742Z"></path>
<path fill="#FFCC2F" d="M788.772 97.4742C817.343 97.4742 840.507 75.64 840.507 48.7371C840.507 21.8342 817.343 0 788.772 0C760.201 0 737.036 21.8342 737.036 48.7371C737.036 75.64 760.201 97.4742 788.772 97.4742Z"></path>
</svg>
